<mxfile host="Electron" agent="Mozilla/5.0 (Windows NT 10.0; Win64; x64) AppleWebKit/537.36 (KHTML, like Gecko) draw.io/24.7.17 Chrome/128.0.6613.36 Electron/32.0.1 Safari/537.36" version="24.7.17">
  <diagram id="C5RBs43oDa-KdzZeNtuy" name="Page-1">
    <mxGraphModel dx="1008" dy="592" grid="1" gridSize="10" guides="1" tooltips="1" connect="1" arrows="1" fold="1" page="1" pageScale="1" pageWidth="827" pageHeight="1169" math="0" shadow="0">
      <root>
        <mxCell id="WIyWlLk6GJQsqaUBKTNV-0" />
        <mxCell id="WIyWlLk6GJQsqaUBKTNV-1" parent="WIyWlLk6GJQsqaUBKTNV-0" />
        <mxCell id="h5ZriOzemYTKJpJUj6Qd-2" value="" style="edgeStyle=orthogonalEdgeStyle;rounded=0;orthogonalLoop=1;jettySize=auto;html=1;" edge="1" parent="WIyWlLk6GJQsqaUBKTNV-1" source="h5ZriOzemYTKJpJUj6Qd-0" target="h5ZriOzemYTKJpJUj6Qd-1">
          <mxGeometry relative="1" as="geometry" />
        </mxCell>
        <mxCell id="h5ZriOzemYTKJpJUj6Qd-0" value="Convertation" style="ellipse;whiteSpace=wrap;html=1;" vertex="1" parent="WIyWlLk6GJQsqaUBKTNV-1">
          <mxGeometry x="354" y="20" width="120" height="50" as="geometry" />
        </mxCell>
        <mxCell id="h5ZriOzemYTKJpJUj6Qd-4" value="" style="edgeStyle=orthogonalEdgeStyle;rounded=0;orthogonalLoop=1;jettySize=auto;html=1;" edge="1" parent="WIyWlLk6GJQsqaUBKTNV-1" source="h5ZriOzemYTKJpJUj6Qd-1" target="h5ZriOzemYTKJpJUj6Qd-3">
          <mxGeometry relative="1" as="geometry" />
        </mxCell>
        <mxCell id="h5ZriOzemYTKJpJUj6Qd-1" value="init the list of arguments" style="whiteSpace=wrap;html=1;" vertex="1" parent="WIyWlLk6GJQsqaUBKTNV-1">
          <mxGeometry x="354" y="90" width="120" height="40" as="geometry" />
        </mxCell>
        <mxCell id="h5ZriOzemYTKJpJUj6Qd-6" value="" style="edgeStyle=orthogonalEdgeStyle;rounded=0;orthogonalLoop=1;jettySize=auto;html=1;" edge="1" parent="WIyWlLk6GJQsqaUBKTNV-1" source="h5ZriOzemYTKJpJUj6Qd-3" target="h5ZriOzemYTKJpJUj6Qd-5">
          <mxGeometry relative="1" as="geometry" />
        </mxCell>
        <mxCell id="h5ZriOzemYTKJpJUj6Qd-3" value="working on the list is started" style="shape=process;whiteSpace=wrap;html=1;backgroundOutline=1;" vertex="1" parent="WIyWlLk6GJQsqaUBKTNV-1">
          <mxGeometry x="354" y="150" width="120" height="40" as="geometry" />
        </mxCell>
        <mxCell id="h5ZriOzemYTKJpJUj6Qd-8" value="" style="edgeStyle=orthogonalEdgeStyle;rounded=0;orthogonalLoop=1;jettySize=auto;html=1;" edge="1" parent="WIyWlLk6GJQsqaUBKTNV-1" source="h5ZriOzemYTKJpJUj6Qd-5" target="h5ZriOzemYTKJpJUj6Qd-7">
          <mxGeometry relative="1" as="geometry" />
        </mxCell>
        <mxCell id="h5ZriOzemYTKJpJUj6Qd-5" value="output &quot;Convertation into octal system&quot;" style="shape=parallelogram;perimeter=parallelogramPerimeter;whiteSpace=wrap;html=1;fixedSize=1;" vertex="1" parent="WIyWlLk6GJQsqaUBKTNV-1">
          <mxGeometry x="354" y="210" width="120" height="40" as="geometry" />
        </mxCell>
        <mxCell id="h5ZriOzemYTKJpJUj6Qd-10" value="" style="edgeStyle=orthogonalEdgeStyle;rounded=0;orthogonalLoop=1;jettySize=auto;html=1;" edge="1" parent="WIyWlLk6GJQsqaUBKTNV-1" source="h5ZriOzemYTKJpJUj6Qd-7" target="h5ZriOzemYTKJpJUj6Qd-9">
          <mxGeometry relative="1" as="geometry" />
        </mxCell>
        <mxCell id="h5ZriOzemYTKJpJUj6Qd-7" value="i = 0" style="whiteSpace=wrap;html=1;" vertex="1" parent="WIyWlLk6GJQsqaUBKTNV-1">
          <mxGeometry x="379" y="270" width="70" height="30" as="geometry" />
        </mxCell>
        <mxCell id="h5ZriOzemYTKJpJUj6Qd-12" value="" style="edgeStyle=orthogonalEdgeStyle;rounded=0;orthogonalLoop=1;jettySize=auto;html=1;" edge="1" parent="WIyWlLk6GJQsqaUBKTNV-1" source="h5ZriOzemYTKJpJUj6Qd-9" target="h5ZriOzemYTKJpJUj6Qd-11">
          <mxGeometry relative="1" as="geometry" />
        </mxCell>
        <mxCell id="h5ZriOzemYTKJpJUj6Qd-19" value="" style="edgeStyle=orthogonalEdgeStyle;rounded=0;orthogonalLoop=1;jettySize=auto;html=1;" edge="1" parent="WIyWlLk6GJQsqaUBKTNV-1" source="h5ZriOzemYTKJpJUj6Qd-9" target="h5ZriOzemYTKJpJUj6Qd-18">
          <mxGeometry relative="1" as="geometry" />
        </mxCell>
        <mxCell id="h5ZriOzemYTKJpJUj6Qd-9" value="i &amp;lt; num" style="rhombus;whiteSpace=wrap;html=1;" vertex="1" parent="WIyWlLk6GJQsqaUBKTNV-1">
          <mxGeometry x="374" y="320" width="80" height="50" as="geometry" />
        </mxCell>
        <mxCell id="h5ZriOzemYTKJpJUj6Qd-14" value="" style="edgeStyle=orthogonalEdgeStyle;rounded=0;orthogonalLoop=1;jettySize=auto;html=1;" edge="1" parent="WIyWlLk6GJQsqaUBKTNV-1" source="h5ZriOzemYTKJpJUj6Qd-11" target="h5ZriOzemYTKJpJUj6Qd-13">
          <mxGeometry relative="1" as="geometry" />
        </mxCell>
        <mxCell id="h5ZriOzemYTKJpJUj6Qd-11" value="take next argument" style="whiteSpace=wrap;html=1;" vertex="1" parent="WIyWlLk6GJQsqaUBKTNV-1">
          <mxGeometry x="354" y="390" width="120" height="40" as="geometry" />
        </mxCell>
        <mxCell id="h5ZriOzemYTKJpJUj6Qd-16" value="" style="edgeStyle=orthogonalEdgeStyle;rounded=0;orthogonalLoop=1;jettySize=auto;html=1;" edge="1" parent="WIyWlLk6GJQsqaUBKTNV-1" source="h5ZriOzemYTKJpJUj6Qd-13" target="h5ZriOzemYTKJpJUj6Qd-15">
          <mxGeometry relative="1" as="geometry" />
        </mxCell>
        <mxCell id="h5ZriOzemYTKJpJUj6Qd-13" value="output the convertation" style="shape=parallelogram;perimeter=parallelogramPerimeter;whiteSpace=wrap;html=1;fixedSize=1;" vertex="1" parent="WIyWlLk6GJQsqaUBKTNV-1">
          <mxGeometry x="354" y="450" width="120" height="40" as="geometry" />
        </mxCell>
        <mxCell id="h5ZriOzemYTKJpJUj6Qd-17" style="edgeStyle=orthogonalEdgeStyle;rounded=0;orthogonalLoop=1;jettySize=auto;html=1;exitX=0.5;exitY=0;exitDx=0;exitDy=0;entryX=0;entryY=0.5;entryDx=0;entryDy=0;" edge="1" parent="WIyWlLk6GJQsqaUBKTNV-1" source="h5ZriOzemYTKJpJUj6Qd-15" target="h5ZriOzemYTKJpJUj6Qd-9">
          <mxGeometry relative="1" as="geometry" />
        </mxCell>
        <mxCell id="h5ZriOzemYTKJpJUj6Qd-15" value="i++" style="whiteSpace=wrap;html=1;" vertex="1" parent="WIyWlLk6GJQsqaUBKTNV-1">
          <mxGeometry x="240" y="450" width="80" height="40" as="geometry" />
        </mxCell>
        <mxCell id="h5ZriOzemYTKJpJUj6Qd-21" value="" style="edgeStyle=orthogonalEdgeStyle;rounded=0;orthogonalLoop=1;jettySize=auto;html=1;" edge="1" parent="WIyWlLk6GJQsqaUBKTNV-1" source="h5ZriOzemYTKJpJUj6Qd-18" target="h5ZriOzemYTKJpJUj6Qd-20">
          <mxGeometry relative="1" as="geometry" />
        </mxCell>
        <mxCell id="h5ZriOzemYTKJpJUj6Qd-18" value="end of the process" style="whiteSpace=wrap;html=1;" vertex="1" parent="WIyWlLk6GJQsqaUBKTNV-1">
          <mxGeometry x="490" y="320" width="106" height="50" as="geometry" />
        </mxCell>
        <mxCell id="h5ZriOzemYTKJpJUj6Qd-20" value="Finish" style="ellipse;whiteSpace=wrap;html=1;" vertex="1" parent="WIyWlLk6GJQsqaUBKTNV-1">
          <mxGeometry x="630" y="320" width="80" height="50" as="geometry" />
        </mxCell>
        <mxCell id="h5ZriOzemYTKJpJUj6Qd-22" value="+" style="text;html=1;align=center;verticalAlign=middle;whiteSpace=wrap;rounded=0;" vertex="1" parent="WIyWlLk6GJQsqaUBKTNV-1">
          <mxGeometry x="354" y="360" width="60" height="30" as="geometry" />
        </mxCell>
        <mxCell id="h5ZriOzemYTKJpJUj6Qd-23" value="-" style="text;html=1;align=center;verticalAlign=middle;whiteSpace=wrap;rounded=0;" vertex="1" parent="WIyWlLk6GJQsqaUBKTNV-1">
          <mxGeometry x="440" y="310" width="60" height="30" as="geometry" />
        </mxCell>
      </root>
    </mxGraphModel>
  </diagram>
</mxfile>
